<?xml version="1.0" encoding="UTF-8" standalone="no"?>
<!-- Created with Inkscape (http://www.inkscape.org/) -->

<svg
   xmlns:dc="http://purl.org/dc/elements/1.1/"
   xmlns:cc="http://creativecommons.org/ns#"
   xmlns:rdf="http://www.w3.org/1999/02/22-rdf-syntax-ns#"
   xmlns:svg="http://www.w3.org/2000/svg"
   xmlns="http://www.w3.org/2000/svg"
   xmlns:sodipodi="http://sodipodi.sourceforge.net/DTD/sodipodi-0.dtd"
   xmlns:inkscape="http://www.inkscape.org/namespaces/inkscape"
   width="96.000008"
   height="96.000008"
   id="svg3176"
   version="1.1"
   inkscape:version="0.48.4 r9939"
   sodipodi:docname="monitor.svg">
  <defs
     id="defs3178" />
  <sodipodi:namedview
     id="base"
     pagecolor="#ffffff"
     bordercolor="#666666"
     borderopacity="1.0"
     inkscape:pageopacity="0.0"
     inkscape:pageshadow="2"
     inkscape:zoom="6.7353237"
     inkscape:cx="50.400457"
     inkscape:cy="34.264983"
     inkscape:document-units="px"
     inkscape:current-layer="layer1"
     showgrid="false"
     fit-margin-top="0"
     fit-margin-left="0"
     fit-margin-right="0"
     fit-margin-bottom="0"
     inkscape:window-width="1918"
     inkscape:window-height="1059"
     inkscape:window-x="0"
     inkscape:window-y="19"
     inkscape:window-maximized="0" />
  <metadata
     id="metadata3181">
    <rdf:RDF>
      <cc:Work
         rdf:about="">
        <dc:format>image/svg+xml</dc:format>
        <dc:type
           rdf:resource="http://purl.org/dc/dcmitype/StillImage" />
        <dc:title></dc:title>
      </cc:Work>
    </rdf:RDF>
  </metadata>
  <g
     inkscape:groupmode="layer"
     id="layer1"
     inkscape:label="Layer"
     transform="translate(-276.26058,-428.29485)">
    <path
       style="fill:#bebebe;fill-opacity:1;stroke:none;display:inline"
       d="m 285.28471,428.33502 c -5.20386,-0.20535 -9.44742,4.66121 -8.99036,9.74592 0.0222,17.92452 -0.0777,41.86456 0,59.78747 0.22713,5.07642 5.17677,8.84931 10.11415,8.43397 9.95541,-0.0108 17.67568,-0.0127 25.84727,0 l 0,5.99749 -11.61254,0 c -0.12463,-0.009 -0.24996,-0.009 -0.3746,0 -0.49939,0.10922 -0.96351,0.3746 -1.31109,0.74968 l -9.92685,6.9346 c -1.38231,1.37804 -0.26417,4.2374 1.68569,4.3107 l 67.05307,0 c 1.94986,-0.0733 3.06801,-2.93266 1.68569,-4.3107 l -9.92685,-6.9346 c -0.44193,-0.44857 -1.05681,-0.72203 -1.68569,-0.74968 l -11.61254,0 0,-5.99749 c 8.75178,0.006 17.15935,0.0408 27.90756,0 5.11553,-0.26413 8.66867,-5.4231 8.05386,-10.30819 -0.0168,-17.78394 0.0575,-41.62944 0,-59.41262 -0.18356,-5.10333 -5.20794,-8.7107 -10.11415,-8.24655 z m 2.99678,11.99498 71.92285,0 0,53.9774 -71.92285,0 z"
       id="rect2932"
       inkscape:connector-curvature="0"
       sodipodi:nodetypes="ccccccccccccccccccccccccccc" />
  </g>
</svg>
